<?xml version="1.0" standalone="no"?>
<!DOCTYPE svg PUBLIC "-//W3C//DTD SVG 20010904//EN"
 "http://www.w3.org/TR/2001/REC-SVG-20010904/DTD/svg10.dtd">
<svg version="1.0" xmlns="http://www.w3.org/2000/svg"
 width="570.000000pt" height="562.000000pt" viewBox="0 0 570.000000 562.000000"
 preserveAspectRatio="xMidYMid meet">

<g transform="translate(0.000000,562.000000) scale(0.100000,-0.100000)"
fill="#000000" stroke="none">
<path d="M2656 5582 c22 -20 73 -66 113 -101 69 -61 75 -63 96 -50 25 15 116
92 180 151 l40 37 -235 0 -235 0 41 -37z"/>
<path d="M2533 5584 c-17 -26 -16 -27 8 -46 13 -11 44 -37 69 -58 25 -21 83
-70 129 -109 47 -39 88 -71 93 -71 4 0 8 17 8 39 0 33 -7 44 -47 82 -79 74
-221 189 -232 189 -6 0 -18 -12 -28 -26z"/>
<path d="M3065 5558 c-187 -158 -205 -177 -205 -219 0 -21 4 -39 9 -39 5 0 47
33 94 73 46 39 114 96 150 126 37 30 67 60 67 66 0 14 -33 45 -46 44 -5 0 -36
-23 -69 -51z"/>
<path d="M1974 4998 c-286 -293 -542 -557 -569 -586 l-49 -54 55 -51 c31 -29
173 -165 315 -303 358 -346 435 -419 444 -419 4 0 124 113 266 251 142 139
289 280 327 314 l67 62 0 522 0 521 -164 138 c-91 75 -167 137 -169 137 -2 0
-238 -240 -523 -532z"/>
<path d="M3090 5439 c-58 -49 -131 -111 -162 -137 l-58 -47 0 -521 0 -522 73
-67 c39 -37 186 -178 326 -314 139 -135 256 -247 260 -248 3 -2 56 46 118 105
470 450 693 667 693 675 0 5 -91 102 -203 216 -112 113 -367 374 -567 579
-200 204 -366 372 -369 371 -3 0 -53 -40 -111 -90z"/>
<path d="M1248 4264 c-40 -37 -95 -88 -123 -113 -27 -26 -147 -134 -265 -241
-118 -107 -235 -213 -260 -236 -25 -22 -168 -153 -319 -289 l-273 -248 93 -86
c51 -47 101 -92 112 -100 16 -12 124 -12 708 -2 l689 11 44 48 c134 144 486
538 486 543 0 9 -802 779 -811 779 -4 0 -40 -30 -81 -66z"/>
<path d="M3962 3944 c-221 -212 -402 -389 -402 -392 0 -4 39 -51 88 -104 48
-53 166 -184 262 -291 l175 -194 240 -6 c132 -4 445 -10 695 -13 l455 -7 108
98 c59 53 107 99 107 101 0 4 -40 41 -435 399 -464 420 -495 448 -697 633 -98
89 -181 162 -186 162 -4 0 -189 -174 -410 -386z"/>
<path d="M2585 3934 l-260 -255 258 171 c162 107 265 169 274 166 9 -4 122
-77 251 -164 130 -86 243 -161 252 -166 19 -10 -479 480 -500 493 -12 7 -74
-48 -275 -245z"/>
<path d="M2808 3963 c-21 -14 -38 -30 -38 -35 0 -11 149 -6 153 5 1 5 -16 19
-38 32 l-40 23 -37 -25z"/>
<path d="M2935 3898 c-16 -5 -73 -7 -125 -4 -83 5 -98 3 -120 -14 -14 -10 -21
-22 -17 -27 11 -11 234 -17 303 -8 60 7 64 17 19 44 -23 14 -37 16 -60 9z"/>
<path d="M2744 3560 c-299 -44 -558 -278 -630 -570 -25 -103 -23 -268 4 -371
81 -303 329 -517 648 -560 205 -27 434 49 592 196 162 150 242 333 242 555 0
221 -78 401 -238 551 -167 156 -399 231 -618 199z m234 -125 c153 -30 297
-124 387 -250 91 -126 133 -273 121 -422 -22 -287 -227 -519 -510 -578 -95
-19 -156 -19 -254 0 -193 38 -360 168 -445 346 -53 109 -67 170 -67 279 0 108
14 169 65 277 35 75 57 106 122 171 155 157 362 220 581 177z"/>
<path d="M2658 3011 l-148 -144 0 -57 0 -57 145 -142 c80 -77 147 -141 150
-141 3 0 5 36 5 80 0 87 4 80 -107 202 -24 26 -43 51 -43 56 0 5 34 48 75 96
l76 86 -3 82 -3 82 -147 -143z"/>
<path d="M2890 3071 l0 -82 75 -86 c41 -47 75 -89 75 -93 0 -4 -34 -46 -75
-93 l-75 -86 0 -81 c0 -44 3 -80 6 -80 4 0 71 64 150 142 l144 142 0 56 0 57
-133 129 c-184 180 -167 172 -167 75z"/>
<path d="M2796 2869 c-56 -44 -20 -139 54 -139 74 0 110 95 54 139 -15 12 -39
21 -54 21 -15 0 -39 -9 -54 -21z m100 -34 c15 -23 15 -27 0 -50 -11 -17 -26
-25 -46 -25 -20 0 -35 8 -46 25 -15 23 -15 27 0 50 11 17 26 25 46 25 20 0 35
-8 46 -25z"/>
<path d="M3672 3359 c7 -14 65 -110 128 -212 l115 -187 64 0 64 0 -19 23 c-23
25 -281 310 -332 366 -27 28 -31 31 -20 10z"/>
<path d="M1850 3173 c-99 -109 -180 -201 -180 -205 0 -5 26 -8 59 -8 l59 0 74
123 c41 67 98 159 126 205 29 45 50 82 47 82 -2 0 -85 -89 -185 -197z"/>
<path d="M1918 3102 l-27 -40 21 -53 c40 -102 35 -338 -8 -421 -13 -26 -12
-31 13 -69 18 -28 29 -36 34 -27 15 27 41 177 46 273 6 103 -16 288 -41 349
l-12 29 -26 -41z"/>
<path d="M3741 3098 c-39 -144 -48 -292 -27 -435 9 -61 22 -128 30 -149 l13
-38 26 40 27 40 -22 59 c-19 51 -22 80 -22 195 0 115 3 144 22 195 l22 59 -25
38 c-14 21 -27 38 -29 38 -2 0 -9 -19 -15 -42z"/>
<path d="M5610 3020 l-85 -80 88 0 87 0 0 80 c0 44 -1 80 -2 80 -2 -1 -41 -37
-88 -80z"/>
<path d="M0 3015 l0 -75 88 0 87 0 -80 75 c-44 41 -83 74 -87 75 -5 0 -8 -34
-8 -75z"/>
<path d="M1838 2981 c-30 -46 -37 -51 -70 -51 l-37 0 -3 -120 -3 -120 38 0
c33 0 41 -5 74 -51 l37 -51 13 43 c23 75 28 224 9 313 -9 44 -18 82 -20 84 -3
2 -20 -19 -38 -47z"/>
<path d="M3808 2968 c-25 -98 -9 -368 21 -368 4 0 21 20 39 45 28 41 36 45 72
45 l40 0 0 120 0 120 -39 0 c-36 0 -43 5 -72 45 -18 25 -36 45 -40 45 -4 0
-13 -24 -21 -52z"/>
<path d="M770 2919 c-261 -3 -510 -7 -552 -8 l-78 -1 0 -40 0 -40 676 0 c557
0 675 2 666 13 -7 8 -9 29 -5 50 l6 37 -119 -2 c-66 -1 -333 -5 -594 -9z"/>
<path d="M1514 2904 c-5 -18 -1 -38 11 -61 17 -32 17 -34 1 -66 -10 -18 -16
-43 -15 -57 4 -24 6 -25 97 -28 l93 -3 -3 118 -3 118 -87 3 -87 3 -7 -27z"/>
<path d="M4010 2810 l0 -121 87 3 87 3 7 30 c6 21 4 34 -6 45 -20 22 -19 59 1
81 12 14 14 24 7 46 -9 27 -11 28 -96 31 l-87 3 0 -121z"/>
<path d="M4223 2893 c4 -21 2 -42 -5 -50 -9 -11 109 -13 666 -13 l676 0 0 39
0 39 -222 6 c-123 3 -425 8 -672 11 l-449 5 6 -37z"/>
<path d="M140 2751 l0 -39 303 -6 c166 -3 468 -8 671 -11 l369 -5 -6 37 c-4
21 -2 42 5 50 9 11 -109 13 -666 13 l-676 0 0 -39z"/>
<path d="M4218 2777 c7 -8 9 -29 5 -52 l-6 -38 244 6 c134 4 388 8 564 9 176
1 368 4 428 6 l107 3 0 40 0 39 -676 0 c-557 0 -675 -2 -666 -13z"/>
<path d="M0 2605 c0 -41 3 -75 8 -75 4 1 43 34 87 75 l80 75 -87 0 -88 0 0
-75z"/>
<path d="M140 2605 c-47 -42 -96 -87 -108 -99 l-24 -23 374 -339 c205 -187
500 -455 656 -596 155 -142 286 -258 290 -258 14 0 813 772 810 782 -2 5 -120
139 -263 297 l-260 288 -265 6 c-146 4 -458 9 -695 13 l-430 6 -85 -77z"/>
<path d="M4630 2669 c-201 -3 -405 -7 -455 -8 l-90 -3 -82 -91 c-45 -51 -163
-182 -262 -291 -100 -110 -181 -203 -181 -207 0 -10 802 -779 812 -779 4 0 61
48 126 108 357 324 1077 978 1140 1034 29 25 52 48 52 51 0 3 -48 49 -106 102
l-107 96 -241 -3 c-132 -1 -405 -5 -606 -9z"/>
<path d="M5530 2677 c0 -2 38 -39 85 -81 l85 -78 0 81 0 81 -85 0 c-47 0 -85
-2 -85 -3z"/>
<path d="M1691 2623 c20 -21 104 -113 188 -205 84 -93 155 -168 158 -168 3 0
-5 15 -16 33 -12 17 -69 110 -128 205 l-106 172 -66 0 -65 0 35 -37z"/>
<path d="M3871 2587 c-25 -39 -82 -132 -128 -206 -46 -74 -82 -135 -81 -136 3
-3 303 323 351 381 l28 34 -63 0 -63 0 -44 -73z"/>
<path d="M2079 1957 c-47 -45 -197 -190 -335 -323 -137 -133 -279 -269 -316
-304 -38 -35 -68 -66 -68 -70 0 -9 24 -35 240 -255 107 -110 353 -361 544
-558 192 -197 353 -356 357 -355 4 2 80 63 168 137 l161 134 0 522 0 522 -82
78 c-46 44 -193 185 -327 314 -134 130 -246 237 -250 238 -3 2 -44 -34 -92
-80z"/>
<path d="M3494 2008 c-30 -33 -455 -443 -566 -547 l-58 -54 0 -522 0 -521 164
-137 c91 -75 168 -136 173 -136 4 1 87 83 183 183 97 100 344 354 550 565 206
211 381 392 389 403 12 19 9 24 -40 73 -350 340 -752 724 -760 725 -3 0 -19
-15 -35 -32z"/>
<path d="M2585 1687 c255 -250 260 -255 281 -238 38 30 493 475 490 479 -2 2
-113 -69 -246 -158 -133 -89 -247 -163 -254 -166 -7 -3 -124 70 -262 161 -137
92 -253 169 -259 172 -5 2 107 -110 250 -250z"/>
<path d="M2753 1779 c-40 -3 -76 -8 -79 -12 -4 -4 3 -15 15 -24 19 -16 42 -18
159 -18 101 1 143 5 160 15 12 8 22 18 22 22 0 15 -169 26 -277 17z"/>
<path d="M2770 1691 c0 -4 18 -20 39 -34 l39 -26 41 27 c23 14 41 30 41 34 0
5 -36 8 -80 8 -44 0 -80 -4 -80 -9z"/>
<path d="M2675 195 c-83 -69 -151 -129 -153 -133 -1 -5 7 -21 19 -35 l21 -27
96 81 c166 141 182 158 182 201 0 21 -3 38 -8 38 -4 0 -75 -56 -157 -125z"/>
<path d="M2860 281 c0 -36 6 -44 83 -113 111 -99 183 -158 194 -158 15 0 46
37 42 49 -5 13 -301 261 -311 261 -5 0 -8 -18 -8 -39z"/>
<path d="M2750 124 c-47 -41 -96 -86 -110 -100 l-25 -24 233 0 c143 0 231 4
227 9 -12 21 -216 191 -228 191 -6 0 -50 -34 -97 -76z"/>
</g>
</svg>
